<svg xmlns="http://www.w3.org/2000/svg" xmlns:xlink="http://www.w3.org/1999/xlink" version="1.1" width="256" height="256" viewBox="0 0 256 256" xml:space="preserve">
<desc>Created with Fabric.js 1.7.22</desc>
<defs>
</defs>
<g transform="translate(128 128) scale(0.72 0.72)" style="">
	<g style="stroke: none; stroke-width: 0; stroke-dasharray: none; stroke-linecap: butt; stroke-linejoin: miter; stroke-miterlimit: 10; fill: none; fill-rule: nonzero; opacity: 1;" transform="translate(-175.05 -175.05000000000004) scale(3.89 3.89)" >
	<path d="M 31.776 28.212 c 0.757 0 1.543 -0.084 2.352 -0.256 c 5.817 -1.236 8.702 -6.149 7.348 -12.516 C 40.245 9.644 35.24 -1.178 29.255 0.105 c -5.634 1.197 -8.305 12.942 -6.931 19.406 C 23.489 24.992 27.086 28.212 31.776 28.212 z" style="stroke: none; stroke-width: 1; stroke-dasharray: none; stroke-linecap: butt; stroke-linejoin: miter; stroke-miterlimit: 10; fill: rgb(0,0,0); fill-rule: nonzero; opacity: 1;" transform=" matrix(1 0 0 1 0 0) " stroke-linecap="round" />
	<path d="M 55.873 27.956 c 0.768 0.163 1.528 0.244 2.274 0.244 c 1.855 0 3.604 -0.501 5.072 -1.473 c 2.227 -1.475 3.769 -3.97 4.459 -7.216 c 1.373 -6.464 -1.298 -18.209 -6.932 -19.406 c -2.588 -0.551 -5.289 1.163 -7.832 4.95 c -1.97 2.936 -3.652 6.914 -4.39 10.384 c -0.689 3.246 -0.296 6.153 1.139 8.406 C 50.988 25.926 53.193 27.387 55.873 27.956 z" style="stroke: none; stroke-width: 1; stroke-dasharray: none; stroke-linecap: butt; stroke-linejoin: miter; stroke-miterlimit: 10; fill: rgb(0,0,0); fill-rule: nonzero; opacity: 1;" transform=" matrix(1 0 0 1 0 0) " stroke-linecap="round" />
	<path d="M 82.567 21.946 c -1.504 -0.701 -4.01 -0.725 -7.419 3.136 c -1.859 2.105 -3.841 5.233 -5.303 8.368 c -1.25 2.681 -1.49 5.287 -0.694 7.538 c 0.736 2.082 2.364 3.798 4.582 4.832 c 1.328 0.62 2.647 0.919 3.912 0.919 c 3.326 0 6.284 -2.076 8.063 -5.891 v 0 C 88.284 35.322 87.024 24.025 82.567 21.946 z" style="stroke: none; stroke-width: 1; stroke-dasharray: none; stroke-linecap: butt; stroke-linejoin: miter; stroke-miterlimit: 10; fill: rgb(0,0,0); fill-rule: nonzero; opacity: 1;" transform=" matrix(1 0 0 1 0 0) " stroke-linecap="round" />
	<path d="M 16.268 45.819 c 2.219 -1.034 3.846 -2.75 4.582 -4.832 c 0.796 -2.251 0.557 -4.857 -0.693 -7.538 c -2.48 -5.319 -7.952 -13.727 -12.723 -11.504 c -4.458 2.079 -5.718 13.376 -3.141 18.901 c 1.779 3.816 4.736 5.891 8.063 5.891 C 13.621 46.739 14.94 46.438 16.268 45.819 z" style="stroke: none; stroke-width: 1; stroke-dasharray: none; stroke-linecap: butt; stroke-linejoin: miter; stroke-miterlimit: 10; fill: rgb(0,0,0); fill-rule: nonzero; opacity: 1;" transform=" matrix(1 0 0 1 0 0) " stroke-linecap="round" />
	<path d="M 71.51 56.05 c -2.774 -2.394 -4.853 -4.857 -6.355 -7.531 C 61.062 41.233 53.339 36.706 45 36.706 c -8.339 0 -16.062 4.527 -20.155 11.813 c -1.502 2.674 -3.58 5.137 -6.354 7.531 c -4.504 3.885 -6.99 9.521 -6.82 15.464 c 0.105 3.703 1.292 7.284 3.43 10.354 c 4.736 6.799 13.771 9.772 21.971 7.232 l 2.615 -0.811 c 3.475 -1.076 7.15 -1.076 10.626 0 l 2.615 0.811 c 1.962 0.607 3.97 0.9 5.956 0.9 c 6.32 -0.001 12.412 -2.959 16.015 -8.132 c 2.139 -3.07 3.325 -6.65 3.432 -10.354 C 78.501 65.572 76.015 59.935 71.51 56.05 z" style="stroke: none; stroke-width: 1; stroke-dasharray: none; stroke-linecap: butt; stroke-linejoin: miter; stroke-miterlimit: 10; fill: rgb(0,0,0); fill-rule: nonzero; opacity: 1;" transform=" matrix(1 0 0 1 0 0) " stroke-linecap="round" />
</g>
</g>
</svg>