<svg id="partylionslogo" version="1.1" xmlns="http://www.w3.org/2000/svg" xmlns:xlink="http://www.w3.org/1999/xlink" width="400" height="400" viewBox="0, 0, 400,400"><g id="svgg"><path id="path0" d="M199.000 138.939 C 195.931 140.911,191.488 142.954,189.288 143.405 C 184.697 144.347,173.662 143.776,165.091 142.152 C 164.474 142.035,164.217 142.049,164.071 142.206 C 163.964 142.322,162.578 143.879,160.991 145.667 C 157.647 149.434,155.684 151.586,152.361 155.125 C 150.883 156.699,150.129 157.609,150.386 157.512 C 150.614 157.425,153.143 156.327,156.007 155.072 L 161.215 152.790 172.457 152.972 L 183.700 153.155 190.142 147.374 C 201.495 137.185,200.599 137.995,200.494 138.014 C 200.451 138.022,199.779 138.438,199.000 138.939 " stroke="none" fill="transparent" fill-rule="evenodd"></path><path id="path1" d="M180.167 23.913 C 180.167 24.024,184.150 33.194,185.187 35.470 C 185.451 36.049,185.667 36.554,185.667 36.591 C 185.667 36.628,185.892 37.150,186.167 37.750 C 186.442 38.350,186.667 38.872,186.667 38.909 C 186.667 38.946,186.929 39.544,187.250 40.239 C 187.571 40.933,187.833 41.533,187.833 41.572 C 187.833 41.611,188.050 42.117,188.316 42.697 C 189.179 44.582,189.500 45.314,189.500 45.393 C 189.500 45.435,189.762 46.031,190.083 46.716 C 190.404 47.401,190.667 48.000,190.667 48.048 C 190.667 48.095,190.967 48.777,191.333 49.563 C 191.700 50.349,192.000 51.030,192.000 51.075 C 192.000 51.120,192.182 51.553,192.405 52.037 C 192.628 52.521,193.610 54.751,194.588 56.993 C 195.565 59.236,196.502 61.373,196.670 61.743 C 196.839 62.114,197.328 63.242,197.757 64.250 C 198.187 65.258,198.744 66.534,198.995 67.085 C 199.568 68.342,199.752 68.905,199.545 68.778 C 199.459 68.724,197.707 68.597,195.652 68.495 C 193.598 68.393,190.679 68.242,189.167 68.159 C 187.654 68.076,184.092 67.894,181.250 67.753 C 178.408 67.612,174.771 67.425,173.167 67.337 C 165.753 66.929,163.585 66.814,158.917 66.582 C 156.167 66.446,152.548 66.259,150.875 66.167 C 147.261 65.969,142.627 65.720,140.083 65.588 C 139.075 65.536,137.706 65.458,137.042 65.415 C 135.521 65.317,135.495 65.493,136.882 66.503 C 140.087 68.836,144.882 72.342,147.307 74.124 C 148.834 75.246,151.087 76.896,152.314 77.790 C 153.541 78.685,155.051 79.792,155.671 80.250 C 156.290 80.708,157.649 81.703,158.690 82.460 C 159.732 83.218,161.296 84.362,162.167 85.004 C 163.037 85.646,164.454 86.677,165.314 87.294 L 166.878 88.417 166.231 88.612 C 165.875 88.720,165.405 88.813,165.186 88.821 C 164.967 88.828,164.517 88.903,164.186 88.988 C 163.855 89.073,163.133 89.230,162.583 89.335 C 162.033 89.441,161.283 89.591,160.917 89.669 C 160.550 89.746,159.537 89.931,158.667 90.079 C 157.796 90.227,156.783 90.413,156.417 90.494 C 155.434 90.709,154.107 90.962,152.417 91.256 C 151.592 91.399,150.617 91.584,150.250 91.667 C 149.883 91.749,148.533 92.010,147.250 92.247 C 145.967 92.484,144.092 92.829,143.083 93.015 C 142.075 93.201,140.950 93.421,140.583 93.504 C 140.217 93.587,139.579 93.699,139.167 93.755 C 138.499 93.844,136.725 94.173,134.250 94.668 C 133.792 94.759,132.554 94.988,131.500 95.175 C 128.805 95.655,127.872 95.825,126.917 96.007 C 126.458 96.095,125.612 96.242,125.036 96.334 C 124.086 96.485,122.728 96.722,120.167 97.184 C 119.662 97.276,118.575 97.462,117.750 97.598 C 115.867 97.909,114.508 98.136,113.333 98.336 C 111.106 98.714,108.346 99.060,107.542 99.063 C 106.935 99.065,106.667 99.132,106.667 99.283 C 106.667 99.402,106.847 99.500,107.068 99.500 C 107.414 99.500,112.554 102.008,115.083 103.411 C 116.501 104.198,117.543 104.771,118.583 105.338 C 122.303 107.365,141.792 118.482,142.833 119.170 C 143.753 119.779,143.750 119.780,145.376 118.663 C 146.223 118.081,147.479 117.220,148.167 116.749 C 148.854 116.278,151.254 114.626,153.500 113.078 C 155.746 111.529,159.346 109.047,161.500 107.562 C 163.654 106.077,165.754 104.627,166.167 104.341 C 167.496 103.418,177.526 96.499,179.333 95.258 C 182.051 93.392,183.252 92.564,190.750 87.387 C 194.600 84.728,198.650 81.938,199.750 81.187 L 201.750 79.821 203.833 79.915 C 204.979 79.968,207.042 80.083,208.417 80.171 C 209.792 80.260,213.129 80.445,215.833 80.583 C 218.537 80.721,222.006 80.908,223.542 81.000 C 225.077 81.092,227.590 81.241,229.125 81.331 C 230.660 81.421,233.229 81.574,234.833 81.670 C 236.438 81.767,239.250 81.919,241.083 82.009 C 242.917 82.099,245.617 82.242,247.083 82.328 C 250.391 82.522,254.799 82.774,258.815 82.999 L 261.879 83.171 263.481 82.308 C 264.362 81.833,265.383 81.281,265.750 81.080 C 266.117 80.879,267.017 80.392,267.750 79.997 C 268.483 79.603,269.721 78.929,270.500 78.500 C 271.279 78.071,272.517 77.397,273.250 77.003 C 273.983 76.608,274.958 76.081,275.417 75.831 C 277.483 74.707,280.336 73.160,281.250 72.667 C 281.800 72.371,282.625 71.923,283.083 71.672 C 283.542 71.421,284.517 70.892,285.250 70.496 C 285.983 70.101,287.333 69.367,288.250 68.867 C 289.167 68.367,290.367 67.717,290.917 67.423 C 295.731 64.853,295.984 64.650,293.917 65.009 C 293.367 65.105,292.242 65.287,291.417 65.415 C 290.592 65.542,289.467 65.730,288.917 65.832 C 287.528 66.090,286.507 66.265,284.667 66.560 C 283.796 66.699,282.633 66.896,282.083 66.998 C 281.533 67.100,280.671 67.252,280.167 67.335 C 279.662 67.419,278.537 67.606,277.667 67.750 C 276.796 67.894,275.671 68.081,275.167 68.165 C 274.662 68.248,273.819 68.395,273.292 68.492 C 272.765 68.588,271.902 68.745,271.375 68.841 C 270.848 68.938,269.742 69.121,268.917 69.248 C 268.092 69.375,266.967 69.563,266.417 69.665 C 265.430 69.848,265.039 69.914,262.083 70.402 C 260.382 70.682,257.036 71.264,255.667 71.517 C 255.162 71.611,254.075 71.791,253.250 71.919 C 251.824 72.139,251.068 72.270,248.875 72.678 C 247.252 72.980,246.401 73.055,246.583 72.880 C 246.675 72.792,247.838 71.897,249.167 70.891 C 252.803 68.139,255.778 65.874,257.111 64.842 C 257.767 64.333,259.145 63.279,260.173 62.500 C 261.201 61.721,262.920 60.408,263.993 59.583 C 265.066 58.758,266.196 57.896,266.504 57.667 C 266.811 57.438,267.795 56.688,268.691 56.000 C 269.586 55.313,271.307 54.000,272.516 53.083 C 273.724 52.167,275.444 50.854,276.338 50.167 C 277.232 49.479,278.178 48.757,278.440 48.561 C 279.087 48.079,278.876 47.942,277.808 48.152 C 276.898 48.331,273.221 49.099,272.167 49.330 C 271.846 49.401,270.796 49.622,269.833 49.822 C 268.296 50.141,267.155 50.398,264.583 51.003 C 264.217 51.089,263.504 51.237,263.000 51.330 C 262.157 51.487,261.362 51.654,259.833 51.997 C 259.512 52.069,258.275 52.332,257.083 52.582 C 255.892 52.831,254.654 53.095,254.333 53.167 C 254.012 53.239,253.150 53.425,252.417 53.581 C 251.683 53.736,250.821 53.924,250.500 53.998 C 250.179 54.072,249.504 54.223,249.000 54.333 C 248.496 54.443,247.783 54.601,247.417 54.684 C 247.050 54.766,246.188 54.946,245.500 55.083 C 244.813 55.221,243.950 55.400,243.583 55.483 C 243.217 55.566,242.542 55.713,242.083 55.812 C 241.625 55.910,240.350 56.184,239.250 56.420 C 238.150 56.656,236.612 56.986,235.833 57.153 L 234.417 57.456 233.667 57.029 C 232.981 56.638,228.393 53.769,222.115 49.808 C 219.271 48.012,218.515 47.548,218.167 47.385 C 218.029 47.320,217.842 47.203,217.750 47.124 C 217.576 46.975,213.763 44.572,211.365 43.100 C 210.603 42.633,209.797 42.137,209.574 42.000 C 209.350 41.862,208.286 41.193,207.209 40.512 C 206.131 39.831,204.200 38.625,202.917 37.832 C 200.726 36.479,198.782 35.259,191.667 30.776 C 190.063 29.766,188.600 28.857,188.417 28.758 C 188.233 28.658,187.783 28.383,187.417 28.146 C 182.354 24.881,180.167 23.603,180.167 23.913 M269.368 83.881 C 269.279 83.992,269.130 84.421,269.039 84.833 C 268.947 85.246,268.558 86.783,268.174 88.250 C 267.789 89.717,267.223 91.892,266.916 93.083 C 266.347 95.290,266.002 96.605,264.907 100.750 C 264.568 102.033,264.194 103.496,264.077 104.000 C 263.960 104.504,263.739 105.367,263.586 105.917 C 263.281 107.013,263.113 107.657,260.244 118.750 C 259.936 119.942,259.411 121.967,259.076 123.250 C 258.742 124.533,258.412 125.808,258.343 126.083 C 258.275 126.358,258.167 126.741,258.105 126.935 C 258.004 127.251,258.138 127.340,259.455 127.823 C 260.259 128.118,261.479 128.575,262.167 128.838 C 262.854 129.101,264.167 129.588,265.083 129.919 C 266.000 130.251,267.462 130.787,268.333 131.110 C 269.204 131.434,270.610 131.954,271.458 132.266 C 274.044 133.217,276.089 133.971,277.749 134.585 C 278.620 134.907,280.063 135.440,280.958 135.769 C 281.852 136.099,283.258 136.619,284.083 136.925 C 284.908 137.232,286.333 137.756,287.250 138.090 C 288.909 138.695,289.977 139.093,293.008 140.234 C 295.260 141.082,295.476 140.915,293.875 139.566 C 293.348 139.121,292.879 138.718,292.833 138.670 C 292.725 138.558,290.097 136.233,289.343 135.583 C 289.023 135.308,288.384 134.742,287.923 134.324 C 287.030 133.517,284.773 131.527,279.995 127.333 C 270.907 119.358,271.491 119.937,272.375 119.783 C 273.408 119.603,282.534 117.618,284.417 117.164 C 285.150 116.987,286.050 116.797,286.417 116.741 C 286.783 116.685,287.308 116.579,287.583 116.507 C 288.454 116.277,292.525 115.369,299.333 113.886 C 300.387 113.657,301.512 113.410,301.833 113.339 C 302.154 113.267,303.204 113.045,304.167 112.845 C 305.129 112.645,306.517 112.341,307.250 112.169 C 307.983 111.998,309.183 111.733,309.917 111.581 C 311.087 111.339,312.306 111.066,314.750 110.499 C 315.117 110.414,315.848 110.262,316.375 110.160 C 317.986 109.851,318.165 109.983,310.667 105.953 C 310.162 105.682,309.375 105.253,308.917 105.000 C 308.458 104.747,307.708 104.333,307.250 104.081 C 306.792 103.828,305.817 103.303,305.083 102.914 C 304.350 102.526,303.412 102.021,303.000 101.793 C 302.137 101.315,298.941 99.588,296.750 98.416 C 295.925 97.974,294.500 97.202,293.583 96.700 C 292.667 96.198,291.392 95.508,290.750 95.167 C 290.108 94.825,289.246 94.358,288.833 94.129 C 287.981 93.654,284.815 91.943,282.583 90.750 C 281.758 90.309,280.439 89.592,279.651 89.156 C 278.863 88.720,277.588 88.029,276.818 87.621 C 276.047 87.213,275.042 86.671,274.583 86.418 C 273.763 85.963,272.828 85.456,270.641 84.276 C 269.799 83.823,269.492 83.727,269.368 83.881 M198.251 88.665 C 198.146 88.835,199.060 90.286,204.667 98.847 C 205.996 100.876,207.909 103.815,208.919 105.377 C 209.929 106.939,210.945 108.359,211.177 108.533 C 211.658 108.892,210.685 109.176,221.000 105.665 C 223.704 104.745,227.454 103.473,229.333 102.840 C 231.213 102.207,235.399 100.790,238.638 99.691 C 242.992 98.213,244.495 97.766,244.407 97.972 C 244.281 98.266,240.276 110.081,237.081 119.583 C 236.033 122.700,233.968 128.813,232.493 133.167 C 231.018 137.521,229.660 141.571,229.476 142.167 C 229.291 142.762,228.998 143.625,228.826 144.083 C 228.211 145.716,228.097 145.296,231.168 152.776 C 236.847 166.611,236.346 165.614,236.844 164.070 C 236.990 163.619,237.154 163.137,237.210 163.000 C 237.266 162.862,237.584 161.962,237.917 161.000 C 238.250 160.037,238.640 158.950,238.783 158.583 C 238.927 158.217,239.142 157.617,239.261 157.250 C 239.380 156.883,239.641 156.133,239.841 155.583 C 240.262 154.423,242.133 149.115,242.336 148.500 C 242.412 148.271,242.809 147.146,243.218 146.000 C 244.369 142.778,246.016 138.129,246.171 137.667 C 246.248 137.438,246.657 136.275,247.080 135.083 C 247.504 133.892,248.002 132.467,248.187 131.917 C 248.372 131.367,248.589 130.767,248.669 130.583 C 248.749 130.400,249.086 129.462,249.418 128.500 C 249.749 127.537,250.162 126.375,250.334 125.917 C 250.724 124.880,251.574 122.461,252.090 120.917 C 252.437 119.879,252.939 118.473,254.022 115.500 C 254.206 114.996,254.536 114.058,254.755 113.417 C 254.975 112.775,255.426 111.500,255.756 110.583 C 256.087 109.667,256.421 108.729,256.497 108.500 C 256.574 108.271,256.986 107.108,257.413 105.917 C 257.841 104.725,258.369 103.225,258.588 102.583 C 259.039 101.261,260.097 98.276,261.247 95.083 C 262.123 92.650,262.333 92.002,262.333 91.734 C 262.333 91.605,260.992 91.517,257.958 91.445 C 251.851 91.299,236.024 90.869,229.250 90.665 C 212.234 90.151,213.083 90.195,206.917 89.508 C 205.105 89.306,203.016 89.082,200.667 88.837 C 199.704 88.736,198.792 88.616,198.639 88.570 C 198.486 88.524,198.312 88.567,198.251 88.665 M193.583 91.287 C 193.033 91.712,192.133 92.408,191.583 92.833 C 191.033 93.258,187.771 95.779,184.333 98.436 C 180.896 101.094,177.333 103.846,176.417 104.553 C 175.500 105.260,174.412 106.100,174.000 106.418 C 173.588 106.737,171.450 108.387,169.250 110.085 C 163.872 114.235,157.165 119.424,152.366 123.147 C 150.194 124.832,148.009 126.513,147.511 126.883 C 147.013 127.253,146.488 127.652,146.344 127.768 C 146.201 127.885,144.649 129.091,142.895 130.449 C 141.141 131.806,138.108 134.154,136.154 135.667 C 134.201 137.179,132.073 138.818,131.426 139.310 C 130.779 139.801,130.025 140.376,129.750 140.589 C 128.863 141.275,127.421 142.399,127.250 142.538 C 127.158 142.613,125.771 143.690,124.167 144.931 C 122.563 146.172,121.136 147.276,120.997 147.385 C 120.857 147.494,120.445 147.807,120.080 148.081 C 119.715 148.354,119.304 148.669,119.167 148.781 C 118.781 149.094,113.461 153.197,112.831 153.667 C 112.281 154.078,110.741 155.273,110.417 155.540 C 110.325 155.616,108.938 156.692,107.333 157.931 C 105.729 159.170,104.303 160.273,104.163 160.383 C 104.024 160.493,103.612 160.807,103.247 161.081 C 102.882 161.354,102.471 161.668,102.333 161.779 C 101.781 162.225,95.869 166.783,95.248 167.241 C 94.883 167.511,94.546 167.774,94.500 167.825 C 94.454 167.875,93.930 168.287,93.334 168.740 C 92.739 169.192,92.177 169.625,92.084 169.701 C 91.992 169.777,90.942 170.592,89.750 171.512 C 88.558 172.433,87.471 173.276,87.333 173.387 C 87.196 173.498,86.785 173.813,86.420 174.086 C 86.055 174.360,85.643 174.673,85.503 174.782 C 84.620 175.476,78.961 179.839,78.415 180.247 C 78.049 180.521,77.637 180.835,77.500 180.945 C 77.362 181.056,75.450 182.543,73.250 184.249 C 71.050 185.956,69.136 187.441,68.997 187.551 C 68.857 187.660,68.445 187.971,68.080 188.241 C 67.715 188.511,67.379 188.774,67.333 188.825 C 67.287 188.875,66.521 189.469,65.630 190.143 C 63.125 192.040,63.126 191.957,65.604 192.169 C 66.601 192.254,68.242 192.402,69.250 192.498 C 70.258 192.594,72.358 192.783,73.917 192.917 C 76.794 193.165,79.244 193.388,82.250 193.675 C 83.167 193.763,85.229 193.946,86.833 194.083 C 88.438 194.220,90.537 194.404,91.500 194.492 C 92.462 194.580,93.362 194.657,93.500 194.662 C 94.373 194.696,94.229 194.947,90.908 199.191 C 82.178 210.347,80.777 212.140,80.202 212.894 C 79.862 213.339,79.507 213.789,79.414 213.894 C 79.281 214.042,77.553 216.248,76.637 217.439 C 76.545 217.558,76.824 218.269,77.389 219.356 C 77.883 220.306,78.982 222.433,79.832 224.083 C 80.682 225.733,81.846 227.983,82.418 229.083 C 82.991 230.183,83.928 232.008,84.500 233.138 C 85.173 234.465,85.666 235.243,85.895 235.334 C 86.090 235.413,87.188 235.827,88.333 236.255 C 89.479 236.683,91.279 237.358,92.333 237.754 C 93.388 238.150,95.000 238.749,95.917 239.085 C 96.833 239.421,97.733 239.759,97.917 239.835 C 98.100 239.911,98.813 240.175,99.500 240.423 C 100.188 240.670,100.900 240.933,101.083 241.007 C 101.481 241.166,104.751 242.386,107.083 243.245 C 108.000 243.582,108.900 243.921,109.083 243.997 C 109.267 244.073,110.467 244.527,111.750 245.004 C 113.033 245.481,114.646 246.082,115.333 246.338 C 116.021 246.594,117.633 247.193,118.917 247.668 C 122.654 249.053,126.518 250.493,130.374 251.938 C 131.497 252.359,132.942 252.892,133.583 253.122 C 134.225 253.351,134.900 253.600,135.083 253.674 C 135.593 253.879,140.042 255.556,141.917 256.249 C 142.833 256.587,144.446 257.189,145.500 257.586 C 146.554 257.982,147.885 258.473,148.458 258.676 C 149.587 259.075,149.824 259.275,148.958 259.097 C 148.660 259.036,147.742 258.879,146.917 258.749 C 146.092 258.619,144.967 258.431,144.417 258.331 C 143.142 258.100,141.806 257.878,139.917 257.584 C 139.092 257.456,137.517 257.193,136.417 257.000 C 135.317 256.807,133.742 256.544,132.917 256.416 C 130.974 256.113,129.657 255.894,128.417 255.667 C 127.426 255.485,127.077 255.427,124.000 254.933 C 123.129 254.794,121.967 254.598,121.417 254.498 C 120.142 254.267,118.806 254.045,116.917 253.751 C 116.092 253.622,114.517 253.360,113.417 253.167 C 112.317 252.974,110.742 252.711,109.917 252.582 C 107.974 252.280,106.657 252.061,105.417 251.833 C 104.421 251.651,104.007 251.582,101.000 251.100 C 100.129 250.961,98.517 250.690,97.417 250.498 C 96.317 250.306,94.742 250.045,93.917 249.918 C 93.092 249.791,91.459 249.524,90.289 249.326 C 87.831 248.910,87.749 248.924,87.612 249.777 C 87.493 250.523,87.115 252.302,86.501 255.000 C 86.428 255.321,86.241 256.183,86.086 256.917 C 85.931 257.650,85.743 258.512,85.668 258.833 C 85.594 259.154,85.443 259.829,85.333 260.333 C 85.223 260.837,85.072 261.512,84.998 261.833 C 84.924 262.154,84.736 263.017,84.581 263.750 C 84.269 265.225,84.037 266.284,83.832 267.167 C 83.758 267.487,83.570 268.350,83.414 269.083 C 83.259 269.817,83.059 270.754,82.969 271.167 C 82.879 271.579,82.793 272.001,82.778 272.104 C 82.762 272.206,84.362 273.541,86.333 275.070 C 88.304 276.599,90.029 277.941,90.167 278.051 C 90.304 278.162,90.904 278.627,91.500 279.084 C 92.096 279.542,92.621 279.959,92.667 280.012 C 92.712 280.064,93.162 280.410,93.667 280.780 C 94.483 281.380,103.165 288.104,103.584 288.461 C 103.677 288.540,104.239 288.974,104.834 289.427 C 105.430 289.880,105.954 290.291,106.000 290.342 C 106.046 290.393,106.383 290.655,106.750 290.925 C 107.117 291.194,107.454 291.453,107.500 291.499 C 107.804 291.807,110.344 293.667,110.460 293.667 C 110.538 293.667,110.853 293.198,111.158 292.625 C 116.485 282.629,123.195 276.462,131.083 274.311 C 132.163 274.016,136.318 274.020,141.500 274.321 C 157.961 275.276,169.568 272.792,176.813 266.763 C 180.048 264.071,191.818 252.578,198.337 245.745 C 199.389 244.642,201.000 242.954,201.917 241.993 C 202.833 241.032,204.671 239.085,206.000 237.665 C 207.329 236.245,208.529 234.971,208.667 234.833 C 208.805 234.696,209.743 233.687,210.751 232.592 C 211.759 231.496,212.834 230.334,213.141 230.008 C 214.134 228.955,213.718 230.034,217.840 217.833 C 218.568 215.679,219.768 212.154,220.507 210.000 C 221.247 207.846,222.004 205.596,222.190 205.000 C 222.376 204.404,222.643 203.617,222.783 203.250 C 222.924 202.883,223.364 201.608,223.761 200.417 C 224.159 199.225,225.354 195.700,226.416 192.583 C 227.479 189.467,228.868 185.379,229.503 183.500 C 230.138 181.621,231.481 177.657,232.488 174.693 L 234.317 169.302 214.617 129.901 C 203.782 108.230,194.842 90.503,194.750 90.507 C 194.658 90.510,194.133 90.862,193.583 91.287 M255.333 133.388 C 255.333 133.510,256.354 135.666,257.602 138.180 C 260.015 143.038,264.093 151.296,268.667 160.583 C 270.202 163.700,273.201 169.775,275.332 174.083 C 279.818 183.152,284.399 192.430,288.251 200.250 C 289.741 203.275,292.882 209.639,295.230 214.391 C 297.579 219.144,299.500 223.088,299.500 223.155 C 299.500 223.294,297.973 224.769,295.087 227.418 C 292.479 229.811,291.455 230.833,289.246 233.250 C 288.240 234.350,286.924 235.775,286.322 236.417 C 285.720 237.058,284.332 238.561,283.238 239.755 C 277.754 245.745,275.677 248.004,274.817 248.917 C 274.299 249.467,273.472 250.363,272.979 250.908 C 272.486 251.454,271.607 252.407,271.025 253.027 C 270.443 253.647,269.820 254.325,269.640 254.535 C 269.460 254.745,269.032 255.217,268.690 255.583 C 268.153 256.158,265.982 258.518,262.941 261.833 C 262.479 262.337,261.647 263.238,261.092 263.835 C 260.537 264.432,259.258 265.818,258.250 266.916 C 257.242 268.013,255.892 269.476,255.250 270.166 C 254.608 270.857,253.296 272.283,252.333 273.335 C 250.598 275.233,248.660 277.338,248.500 277.499 C 248.454 277.546,247.592 278.483,246.583 279.583 C 245.575 280.683,244.713 281.621,244.667 281.667 C 244.621 281.712,243.758 282.649,242.750 283.749 C 241.742 284.848,240.566 286.123,240.138 286.582 C 239.710 287.041,239.222 287.575,239.055 287.767 C 238.732 288.139,236.150 290.946,234.324 292.909 C 233.724 293.555,232.824 294.532,232.324 295.081 C 231.825 295.630,230.997 296.530,230.484 297.081 C 229.971 297.632,228.587 299.133,227.408 300.417 C 226.230 301.700,224.880 303.162,224.408 303.667 C 223.937 304.171,222.176 306.083,220.495 307.917 C 218.815 309.750,216.647 312.105,215.678 313.151 C 214.709 314.196,213.842 315.134,213.750 315.235 C 213.658 315.336,212.758 316.317,211.750 317.416 C 210.742 318.514,209.608 319.751,209.231 320.164 C 208.855 320.578,208.200 321.292,207.776 321.750 C 207.039 322.548,206.767 323.125,207.208 322.956 C 207.420 322.875,209.572 322.212,212.583 321.301 C 213.500 321.024,215.037 320.554,216.000 320.257 C 216.963 319.960,218.200 319.585,218.750 319.424 C 219.300 319.264,220.612 318.871,221.667 318.551 C 225.190 317.481,227.404 316.809,229.000 316.322 C 229.871 316.056,231.071 315.694,231.667 315.518 C 233.208 315.061,235.736 314.296,238.250 313.525 C 240.175 312.935,241.703 312.475,244.167 311.744 C 244.579 311.622,245.779 311.259,246.833 310.938 C 249.857 310.017,249.553 310.045,249.459 310.691 C 249.414 310.998,249.215 312.037,249.016 313.000 C 248.817 313.962,248.537 315.387,248.392 316.167 C 248.248 316.946,248.072 317.883,248.002 318.250 C 247.931 318.617,247.714 319.742,247.521 320.750 C 247.075 323.074,246.844 324.242,246.663 325.083 C 246.585 325.450,246.403 326.387,246.259 327.167 C 246.116 327.946,245.876 329.183,245.728 329.917 C 245.579 330.650,245.399 331.550,245.327 331.917 C 245.081 333.180,244.842 334.420,244.586 335.750 C 244.308 337.195,244.046 338.532,243.835 339.583 C 243.762 339.950,243.619 340.700,243.518 341.250 C 243.278 342.552,243.009 343.917,242.828 344.750 C 242.749 345.117,242.565 346.092,242.419 346.917 C 242.274 347.742,242.088 348.717,242.008 349.083 C 241.927 349.450,241.773 350.200,241.667 350.750 C 241.560 351.300,241.408 352.050,241.328 352.417 C 241.249 352.783,241.063 353.758,240.917 354.583 C 240.770 355.408,240.571 356.458,240.475 356.917 C 240.023 359.077,239.818 360.126,239.416 362.333 C 239.274 363.113,239.077 364.125,238.979 364.583 C 238.881 365.042,238.737 365.717,238.659 366.083 C 238.581 366.450,238.395 367.425,238.247 368.250 C 238.098 369.075,237.860 370.313,237.718 371.000 C 237.575 371.688,237.424 372.438,237.381 372.667 C 237.339 372.896,237.198 373.624,237.069 374.285 C 236.536 377.004,236.659 376.944,239.005 373.337 C 239.965 371.862,241.575 369.398,242.583 367.861 C 243.592 366.325,245.579 363.288,247.000 361.113 C 248.421 358.937,250.484 355.791,251.585 354.121 C 252.685 352.450,254.162 350.183,254.867 349.083 C 255.571 347.983,256.212 347.008,256.290 346.917 C 256.369 346.825,257.118 345.691,257.954 344.396 C 259.864 341.441,263.276 336.228,265.085 333.500 C 265.844 332.354,267.910 329.204,269.675 326.500 C 271.440 323.796,273.754 320.251,274.817 318.622 C 275.880 316.993,277.650 314.292,278.750 312.619 C 281.581 308.315,284.571 303.752,286.089 301.417 C 288.471 297.753,292.046 292.299,296.502 285.531 L 298.732 282.144 299.030 282.531 C 299.194 282.743,300.331 284.342,301.556 286.083 C 302.782 287.825,304.898 290.825,306.257 292.750 C 307.617 294.675,310.182 298.313,311.958 300.833 C 313.734 303.354,315.294 305.567,315.425 305.750 C 315.557 305.933,316.041 306.608,316.502 307.250 C 316.962 307.892,319.156 310.999,321.378 314.155 C 323.599 317.311,325.500 319.920,325.602 319.952 C 325.999 320.081,326.265 316.241,326.485 307.231 C 326.774 295.346,326.294 283.093,325.010 269.583 C 324.552 264.766,324.325 262.457,324.169 261.042 C 323.804 257.714,323.670 256.529,323.506 255.167 C 323.412 254.387,323.221 252.737,323.081 251.500 C 322.942 250.262,322.759 248.725,322.675 248.083 C 322.419 246.136,322.189 244.351,321.922 242.250 C 321.689 240.411,321.572 239.559,321.167 236.750 C 321.088 236.200,320.906 234.925,320.763 233.917 C 320.386 231.256,319.946 228.610,319.405 225.750 C 319.353 225.475,319.195 224.612,319.054 223.833 C 318.912 223.054,318.655 221.874,318.482 221.211 C 318.308 220.548,318.167 219.936,318.167 219.850 C 318.167 219.724,320.467 220.584,322.667 221.532 C 323.228 221.774,323.344 221.818,326.500 223.001 C 328.012 223.568,329.737 224.221,330.333 224.451 C 330.929 224.682,331.717 224.966,332.083 225.084 C 332.450 225.202,333.387 225.537,334.167 225.828 C 335.564 226.352,336.133 226.557,339.417 227.722 C 340.333 228.047,341.833 228.584,342.750 228.915 C 344.707 229.620,347.573 230.637,348.167 230.836 C 348.396 230.912,349.896 231.436,351.500 232.000 C 356.978 233.926,356.821 233.927,355.142 231.981 C 354.157 230.839,352.174 228.517,351.182 227.344 C 350.471 226.502,349.572 225.458,348.520 224.248 C 348.280 223.972,347.671 223.260,347.168 222.665 C 346.664 222.070,346.214 221.546,346.168 221.500 C 346.121 221.454,345.708 220.967,345.250 220.417 C 344.792 219.867,344.221 219.192,343.982 218.917 C 343.743 218.642,342.618 217.329,341.482 216.000 C 340.346 214.671,339.256 213.396,339.060 213.167 C 338.864 212.938,337.327 211.137,335.646 209.167 C 333.964 207.196,332.426 205.396,332.228 205.167 C 331.596 204.436,324.043 195.581,319.930 190.750 C 317.745 188.183,315.759 185.858,315.517 185.583 C 315.274 185.308,314.441 184.333,313.665 183.417 C 312.890 182.500,312.214 181.713,312.163 181.667 C 312.113 181.621,311.249 180.608,310.244 179.417 C 309.240 178.225,308.221 177.025,307.980 176.750 C 306.621 175.194,306.015 174.488,305.417 173.761 C 305.050 173.315,304.675 172.868,304.582 172.767 C 304.490 172.666,303.779 171.833,303.002 170.917 C 302.224 170.000,301.549 169.212,301.502 169.167 C 301.427 169.095,300.520 168.033,299.229 166.503 C 298.760 165.948,297.402 164.377,296.848 163.750 C 295.213 161.899,294.160 160.494,294.360 160.431 C 294.483 160.393,294.846 160.311,295.167 160.249 C 295.487 160.186,296.425 159.991,297.250 159.816 C 298.075 159.640,299.350 159.387,300.083 159.252 C 300.817 159.118,302.129 158.855,303.000 158.669 C 303.871 158.482,304.958 158.261,305.417 158.179 C 305.875 158.096,307.225 157.830,308.417 157.587 C 309.608 157.344,311.521 156.963,312.667 156.740 C 313.813 156.517,315.462 156.183,316.333 155.999 C 317.204 155.814,318.517 155.554,319.250 155.421 C 324.998 154.378,325.445 154.183,323.417 153.597 C 322.867 153.438,321.742 153.100,320.917 152.845 C 320.092 152.591,318.967 152.251,318.417 152.091 C 317.867 151.930,316.479 151.513,315.333 151.163 C 313.482 150.599,311.947 150.137,309.500 149.411 C 309.087 149.288,307.775 148.888,306.583 148.520 C 305.392 148.153,304.154 147.780,303.833 147.691 C 303.187 147.511,297.476 145.802,294.833 144.998 C 294.237 144.817,293.150 144.489,292.417 144.270 C 291.683 144.051,290.333 143.644,289.417 143.365 C 288.500 143.087,287.075 142.661,286.250 142.419 C 285.425 142.177,284.563 141.915,284.333 141.836 C 284.104 141.758,283.467 141.565,282.917 141.408 C 282.367 141.251,281.579 141.011,281.167 140.875 C 280.754 140.739,280.192 140.566,279.917 140.492 C 279.322 140.331,278.182 139.992,276.583 139.502 C 275.942 139.305,274.817 138.968,274.083 138.752 C 273.350 138.537,272.225 138.199,271.583 138.001 C 270.942 137.802,270.079 137.541,269.667 137.420 C 267.214 136.698,265.225 136.104,263.833 135.678 C 262.962 135.411,261.575 134.992,260.750 134.746 C 258.808 134.168,256.719 133.535,256.072 133.329 C 255.406 133.118,255.333 133.123,255.333 133.388 M200.747 137.964 C 199.824 138.841,189.094 148.503,185.318 151.857 L 183.697 153.297 179.474 153.221 C 177.151 153.179,172.105 153.089,168.262 153.021 L 161.274 152.898 155.448 155.449 C 152.244 156.852,149.574 158.000,149.514 158.000 C 149.454 158.000,150.205 157.182,151.181 156.182 C 153.101 154.215,159.745 146.941,162.471 143.820 L 164.156 141.890 166.036 142.197 C 176.316 143.871,185.213 144.236,189.757 143.170 C 192.161 142.607,197.347 140.026,200.333 137.907 C 201.921 136.780,201.985 136.789,200.747 137.964 M249.683 145.793 C 247.760 150.781,243.547 161.747,243.170 162.750 C 243.101 162.933,242.963 163.271,242.863 163.500 C 242.029 165.418,240.328 170.282,238.666 175.500 C 238.097 177.287,237.495 179.162,237.328 179.667 C 237.161 180.171,236.374 182.608,235.579 185.083 C 234.784 187.558,233.963 190.108,233.754 190.750 C 233.544 191.392,233.207 192.479,233.003 193.167 C 232.799 193.854,232.571 194.567,232.495 194.750 C 232.419 194.933,231.819 196.771,231.160 198.833 C 230.501 200.896,229.717 203.333,229.417 204.250 C 229.117 205.167,228.329 207.604,227.666 209.667 C 227.003 211.729,226.065 214.617,225.583 216.083 C 225.100 217.550,224.052 220.775,223.252 223.250 C 222.453 225.725,221.254 229.400,220.588 231.417 C 219.922 233.433,218.418 238.008,217.246 241.583 C 214.318 250.518,207.252 271.710,204.910 278.583 C 203.848 281.700,202.726 285.000,202.416 285.917 C 202.106 286.833,201.432 288.783,200.917 290.250 C 200.403 291.717,199.803 293.442,199.585 294.083 C 199.367 294.725,198.842 296.225,198.418 297.417 C 197.995 298.608,197.398 300.296,197.093 301.167 C 196.485 302.898,195.356 306.022,194.442 308.500 C 194.121 309.371,193.597 310.796,193.277 311.667 C 192.958 312.537,192.308 314.225,191.833 315.417 C 191.359 316.608,190.779 318.071,190.544 318.667 C 190.167 319.627,187.060 325.845,185.965 327.833 C 185.738 328.246,184.777 330.083,183.831 331.917 C 182.884 333.750,181.860 335.729,181.555 336.315 C 180.920 337.535,180.918 337.543,181.240 337.471 C 181.535 337.404,190.861 328.367,202.788 316.589 C 205.570 313.843,207.922 311.548,208.014 311.491 C 208.441 311.227,238.175 281.418,245.417 273.993 C 254.416 264.768,262.735 255.989,266.181 252.083 C 266.586 251.625,267.031 251.137,267.171 251.000 C 267.310 250.862,268.248 249.814,269.254 248.670 C 270.260 247.527,271.284 246.364,271.529 246.087 C 271.774 245.810,272.224 245.271,272.529 244.890 C 272.834 244.509,273.655 243.497,274.354 242.640 C 275.053 241.784,276.160 240.296,276.814 239.333 C 277.468 238.371,278.080 237.471,278.174 237.333 C 278.489 236.873,281.341 232.591,281.782 231.917 C 282.022 231.550,283.557 229.239,285.193 226.780 C 288.560 221.720,288.351 222.257,287.583 220.617 C 287.262 219.932,287.000 219.332,287.000 219.284 C 287.000 219.236,286.737 218.636,286.417 217.951 C 286.096 217.266,285.833 216.666,285.833 216.617 C 285.833 216.569,285.578 215.979,285.266 215.307 C 284.954 214.634,283.951 212.358,283.037 210.250 C 282.123 208.142,281.221 206.079,281.033 205.667 C 280.845 205.254,277.644 197.942,273.919 189.417 C 270.195 180.892,266.964 173.521,266.741 173.037 C 266.517 172.553,266.333 172.122,266.333 172.079 C 266.333 172.037,266.071 171.433,265.750 170.739 C 265.429 170.044,265.167 169.451,265.167 169.421 C 265.167 169.391,264.867 168.723,264.500 167.937 C 264.133 167.151,263.833 166.474,263.833 166.432 C 263.833 166.391,263.571 165.789,263.250 165.095 C 262.929 164.400,262.667 163.800,262.667 163.761 C 262.667 163.723,262.404 163.123,262.083 162.428 C 261.762 161.734,261.500 161.133,261.500 161.094 C 261.500 161.055,261.283 160.549,261.018 159.970 C 260.155 158.085,259.833 157.353,259.833 157.274 C 259.833 157.231,259.571 156.636,259.250 155.951 C 258.929 155.266,258.667 154.666,258.667 154.617 C 258.667 154.569,258.404 153.969,258.083 153.284 C 257.762 152.599,257.500 151.999,257.500 151.951 C 257.500 151.903,257.246 151.313,256.935 150.640 C 256.624 149.967,255.883 148.292,255.289 146.917 C 254.695 145.542,254.057 144.079,253.871 143.667 C 253.569 142.997,253.332 142.462,252.490 140.542 C 252.089 139.629,251.986 139.822,249.683 145.793 M65.833 196.749 C 65.833 196.866,66.378 197.932,69.968 204.833 C 70.659 206.162,71.916 208.597,72.761 210.244 C 73.606 211.891,74.368 213.262,74.455 213.291 C 74.541 213.319,76.068 211.678,77.846 209.643 C 79.625 207.608,81.156 205.862,81.249 205.763 C 81.341 205.664,81.829 205.097,82.333 204.502 C 82.837 203.907,83.400 203.264,83.583 203.073 C 83.874 202.771,84.910 201.593,86.125 200.185 C 86.510 199.738,86.595 199.504,86.375 199.495 C 86.256 199.490,84.958 199.314,82.750 199.004 C 82.200 198.927,80.962 198.747,80.000 198.604 C 79.037 198.460,77.650 198.266,76.917 198.171 C 75.637 198.006,74.335 197.825,72.000 197.488 C 71.404 197.402,70.054 197.222,69.000 197.087 C 67.946 196.952,66.802 196.793,66.458 196.733 C 66.115 196.672,65.833 196.680,65.833 196.749 M215.933 235.630 C 215.301 236.338,214.326 237.408,213.767 238.009 C 213.207 238.610,212.075 239.842,211.250 240.748 C 210.425 241.653,209.600 242.553,209.417 242.747 C 209.233 242.941,208.638 243.583,208.094 244.175 C 207.550 244.766,206.500 245.888,205.761 246.668 C 205.022 247.449,203.892 248.650,203.250 249.338 C 195.113 258.061,183.504 269.664,178.664 273.913 C 172.986 278.895,170.998 280.044,166.417 280.992 C 160.869 282.139,156.674 282.426,147.473 282.287 L 141.196 282.193 141.029 282.638 C 140.937 282.883,140.673 283.608,140.443 284.250 C 139.704 286.308,138.826 288.726,138.506 289.583 C 138.335 290.042,137.995 290.979,137.750 291.667 C 137.505 292.354,137.168 293.292,137.000 293.750 C 136.832 294.208,136.495 295.146,136.251 295.833 C 136.006 296.521,135.743 297.233,135.666 297.417 C 135.589 297.600,135.400 298.125,135.245 298.583 C 135.091 299.042,134.902 299.567,134.825 299.750 C 134.748 299.933,134.415 300.833,134.084 301.750 C 133.754 302.667,133.344 303.792,133.173 304.250 C 133.002 304.708,132.661 305.646,132.415 306.333 C 132.169 307.021,131.778 308.108,131.547 308.750 C 131.316 309.392,130.978 310.329,130.797 310.833 C 130.616 311.337,130.406 311.900,130.330 312.083 C 130.255 312.267,129.993 312.979,129.747 313.667 C 128.914 316.001,128.459 317.248,128.044 318.333 C 127.816 318.929,127.534 319.717,127.416 320.083 C 127.298 320.450,126.962 321.387,126.670 322.167 C 125.462 325.385,125.548 324.594,125.352 334.167 C 125.254 338.979,125.133 345.954,125.085 349.667 C 125.036 353.379,124.948 357.710,124.889 359.292 C 124.748 363.079,124.796 363.064,127.039 358.625 C 128.739 355.260,129.230 354.321,131.328 350.417 C 132.392 348.438,132.762 347.771,133.066 347.281 C 133.271 346.952,133.628 346.309,134.762 344.226 C 134.969 343.846,135.321 343.246,135.544 342.893 C 135.767 342.539,136.274 341.688,136.671 341.000 C 138.434 337.948,142.445 331.593,144.470 328.644 C 151.032 319.089,154.871 314.748,165.007 305.417 C 165.605 304.867,166.466 304.074,166.922 303.654 C 167.377 303.235,169.962 300.920,172.667 298.509 C 175.371 296.099,177.959 293.780,178.419 293.355 C 178.879 292.931,179.964 291.946,180.830 291.167 C 181.697 290.387,182.524 289.637,182.669 289.500 C 182.813 289.362,183.828 288.425,184.924 287.417 C 197.596 275.757,201.898 269.886,209.045 254.500 C 210.290 251.820,210.833 250.628,210.833 250.578 C 210.833 250.548,211.051 250.049,211.317 249.470 C 212.034 247.907,214.236 242.708,214.586 241.750 C 214.754 241.292,214.942 240.842,215.005 240.750 C 215.238 240.410,217.333 234.893,217.333 234.618 C 217.333 234.143,217.131 234.289,215.933 235.630 M193.500 286.519 C 190.796 289.180,186.933 292.984,184.917 294.972 C 182.900 296.960,177.820 301.956,173.627 306.073 C 169.434 310.190,165.967 313.677,165.921 313.821 C 165.820 314.142,165.282 316.663,164.834 318.917 C 164.651 319.833,164.428 320.921,164.338 321.333 C 164.247 321.746,163.978 323.096,163.739 324.333 C 163.500 325.571,163.118 327.521,162.888 328.667 C 162.659 329.813,162.366 331.387,162.236 332.167 C 162.106 332.946,161.930 333.958,161.843 334.417 C 161.085 338.437,160.820 339.901,160.679 340.833 C 160.590 341.429,160.434 342.367,160.333 342.917 C 160.109 344.142,159.897 345.426,159.579 347.500 C 159.446 348.371,159.266 349.533,159.180 350.083 C 158.445 354.784,158.229 356.387,157.649 361.417 C 156.953 367.459,156.782 371.827,156.889 380.750 C 156.940 384.967,157.060 389.279,157.156 390.333 C 157.705 396.355,157.966 398.483,158.189 398.736 C 158.262 398.821,158.671 398.146,159.097 397.236 C 160.248 394.780,166.815 381.581,168.129 379.083 C 169.192 377.063,170.070 375.429,171.172 373.417 C 171.983 371.935,172.705 370.608,173.302 369.500 C 173.623 368.904,174.024 368.218,174.193 367.974 C 174.362 367.731,174.500 367.495,174.500 367.451 C 174.500 367.373,176.027 364.753,178.114 361.250 C 179.642 358.684,182.327 354.556,184.126 352.004 C 187.488 347.236,190.551 343.874,196.322 338.615 C 201.835 333.590,204.783 331.270,209.500 328.244 C 210.990 327.288,209.713 327.660,206.930 328.994 C 205.392 329.730,204.114 330.333,204.090 330.333 C 204.066 330.333,202.893 330.886,201.482 331.561 C 198.362 333.053,196.647 333.864,195.000 334.624 C 194.313 334.941,192.850 335.631,191.750 336.157 C 190.650 336.683,189.412 337.269,189.000 337.459 C 184.667 339.453,180.083 341.685,179.259 342.201 C 177.811 343.108,176.113 344.195,175.357 344.700 C 174.957 344.967,174.599 345.154,174.560 345.116 C 174.481 345.037,175.303 342.673,175.499 342.417 C 175.569 342.325,175.681 342.063,175.749 341.833 C 175.816 341.604,176.996 338.529,178.371 335.000 C 179.745 331.471,181.042 328.084,181.253 327.474 C 181.464 326.864,181.747 326.114,181.882 325.807 C 182.018 325.501,183.122 322.662,184.336 319.500 C 185.550 316.337,186.659 313.487,186.800 313.167 C 186.941 312.846,187.256 312.021,187.500 311.333 C 187.998 309.932,192.910 297.212,193.273 296.385 C 193.401 296.092,193.759 295.155,194.068 294.301 C 194.377 293.448,195.575 290.326,196.731 287.362 C 197.887 284.399,198.833 281.905,198.833 281.821 C 198.833 281.358,197.977 282.112,193.500 286.519 " stroke="none" fill="#fcfcfc" fill-rule="evenodd"></path><path id="path2" d="M199.583 138.500 C 199.527 138.592,199.535 138.667,199.603 138.667 C 199.670 138.667,199.543 138.873,199.321 139.125 L 198.917 139.583 199.347 139.205 C 199.584 138.998,199.778 138.716,199.778 138.580 C 199.778 138.291,199.726 138.270,199.583 138.500 M197.740 140.542 L 197.250 141.083 197.792 140.594 C 198.297 140.138,198.410 140.000,198.281 140.000 C 198.252 140.000,198.009 140.244,197.740 140.542 M178.542 143.782 C 178.702 143.823,178.965 143.823,179.125 143.782 C 179.285 143.740,179.154 143.705,178.833 143.705 C 178.512 143.705,178.381 143.740,178.542 143.782 M182.375 143.955 C 182.719 143.991,183.281 143.991,183.625 143.955 C 183.969 143.919,183.688 143.889,183.000 143.889 C 182.313 143.889,182.031 143.919,182.375 143.955 M159.073 147.708 L 158.583 148.250 159.125 147.760 C 159.423 147.491,159.667 147.248,159.667 147.219 C 159.667 147.090,159.529 147.203,159.073 147.708 M153.991 153.292 L 153.417 153.917 154.042 153.342 C 154.385 153.026,154.667 152.745,154.667 152.717 C 154.667 152.590,154.526 152.710,153.991 153.292 M166.963 152.956 C 167.355 152.991,167.955 152.990,168.296 152.954 C 168.637 152.919,168.317 152.890,167.583 152.890 C 166.850 152.891,166.571 152.920,166.963 152.956 M176.965 153.124 C 177.541 153.156,178.441 153.156,178.965 153.123 C 179.488 153.090,179.017 153.063,177.917 153.064 C 176.817 153.064,176.388 153.091,176.965 153.124 M151.000 156.417 C 150.225 157.196,149.683 157.833,149.795 157.833 C 149.908 157.833,150.000 157.754,150.000 157.657 C 150.000 157.560,150.094 157.534,150.208 157.600 C 150.323 157.666,150.358 157.656,150.287 157.577 C 150.215 157.499,150.701 156.887,151.366 156.217 C 152.031 155.548,152.538 155.000,152.492 155.000 C 152.447 155.000,151.775 155.637,151.000 156.417 " stroke="none" fill="#7c7c7c" fill-rule="evenodd"></path><path id="path3" d="M163.740 142.375 L 163.250 142.917 163.792 142.427 C 164.090 142.158,164.333 141.914,164.333 141.885 C 164.333 141.757,164.196 141.870,163.740 142.375 M163.131 152.956 C 163.615 152.990,164.365 152.990,164.797 152.956 C 165.230 152.921,164.833 152.894,163.917 152.894 C 163.000 152.895,162.646 152.923,163.131 152.956 M172.298 153.124 C 172.875 153.156,173.775 153.156,174.298 153.123 C 174.822 153.090,174.350 153.063,173.250 153.064 C 172.150 153.064,171.722 153.091,172.298 153.124 M182.125 153.287 C 182.423 153.324,182.910 153.324,183.208 153.287 C 183.506 153.250,183.262 153.220,182.667 153.220 C 182.071 153.220,181.827 153.250,182.125 153.287 M152.658 154.625 L 152.083 155.250 152.708 154.676 C 153.052 154.360,153.333 154.078,153.333 154.051 C 153.333 153.923,153.192 154.043,152.658 154.625 " stroke="none" fill="#9e9e9e" fill-rule="evenodd"></path><path id="path4" d="" stroke="none" fill="#8c8c8c" fill-rule="evenodd"></path></g></svg>